<svg width="1152" height="210" viewBox="0 0 1152 210" fill="none" xmlns="http://www.w3.org/2000/svg">
<path d="M167.874 206.976H134.358L33.516 54.3901V206.976H-4.79519e-05V2.35206H33.516L134.358 154.644V2.35206H167.874V206.976ZM292.149 2.64606V132.888C292.149 148.372 296.167 160.034 304.203 167.874C312.435 175.714 323.803 179.634 338.307 179.634C353.007 179.634 364.375 175.714 372.411 167.874C380.643 160.034 384.759 148.372 384.759 132.888V2.64606H418.275V132.3C418.275 148.96 414.649 163.072 407.397 174.636C400.145 186.2 390.443 194.824 378.291 200.508C366.139 206.192 352.713 209.034 338.013 209.034C323.313 209.034 309.887 206.192 297.735 200.508C285.779 194.824 276.273 186.2 269.217 174.636C262.161 163.072 258.633 148.96 258.633 132.3V2.64606H292.149ZM575.691 2.64606C597.447 2.64606 616.459 6.86006 632.727 15.2881C649.191 23.5201 661.833 35.4761 670.653 51.1561C679.669 66.6401 684.177 84.7701 684.177 105.546C684.177 126.322 679.669 144.354 670.653 159.642C661.833 174.93 649.191 186.69 632.727 194.922C616.459 202.958 597.447 206.976 575.691 206.976H508.953V2.64606H575.691ZM575.691 179.634C599.603 179.634 617.929 173.166 630.669 160.23C643.409 147.294 649.779 129.066 649.779 105.546C649.779 81.8301 643.409 63.3081 630.669 49.9801C617.929 36.6521 599.603 29.9881 575.691 29.9881H542.469V179.634H575.691ZM912.316 61.4461C907.024 51.2541 899.674 43.6101 890.266 38.5141C880.858 33.2221 869.98 30.5761 857.632 30.5761C844.108 30.5761 832.054 33.6141 821.47 39.6901C810.886 45.7661 802.556 54.3901 796.48 65.5621C790.6 76.7341 787.66 89.6701 787.66 104.37C787.66 119.07 790.6 132.104 796.48 143.472C802.556 154.644 810.886 163.268 821.47 169.344C832.054 175.42 844.108 178.458 857.632 178.458C875.86 178.458 890.658 173.362 902.026 163.17C913.394 152.978 920.352 139.16 922.9 121.716H846.166V94.9621H958.768V121.128C956.612 137.004 950.928 151.606 941.716 164.934C932.7 178.262 920.842 188.944 906.142 196.98C891.638 204.82 875.468 208.74 857.632 208.74C838.424 208.74 820.882 204.33 805.006 195.51C789.13 186.494 776.488 174.048 767.08 158.172C757.868 142.296 753.262 124.362 753.262 104.37C753.262 84.3781 757.868 66.4441 767.08 50.5681C776.488 34.6921 789.13 22.3441 805.006 13.5241C821.078 4.50806 838.62 5.78165e-05 857.632 5.78165e-05C879.388 5.78165e-05 898.694 5.39006 915.55 16.1701C932.602 26.7541 944.95 41.8461 952.594 61.4461H912.316ZM1072.38 29.6941V89.6701H1142.94V117.012H1072.38V179.634H1151.76V206.976H1038.87V2.35206H1151.76V29.6941H1072.38Z" fill="white"/>
</svg>
