<svg width="418" height="32" viewBox="0 0 418 32" fill="none" xmlns="http://www.w3.org/2000/svg">
<path d="M10.4701 2.04015C12.5101 2.04015 14.3201 2.50015 15.9001 3.42015C17.4801 4.32016 18.7101 5.58016 19.5901 7.20016C20.4701 8.82016 20.9101 10.6602 20.9101 12.7202C20.9101 14.7802 20.4701 16.6302 19.5901 18.2702C18.7101 19.8902 17.4801 21.1602 15.9001 22.0802C14.3201 22.9802 12.5101 23.4302 10.4701 23.4302C8.43012 23.4302 6.61012 22.9802 5.01012 22.0802C3.43012 21.1602 2.20012 19.8902 1.32012 18.2702C0.440117 16.6302 0.000117302 14.7802 0.000117302 12.7202C0.000117302 10.6602 0.440117 8.82016 1.32012 7.20016C2.20012 5.58016 3.43012 4.32016 5.01012 3.42015C6.61012 2.50015 8.43012 2.04015 10.4701 2.04015ZM10.4701 3.42015C8.65012 3.42015 7.06012 3.80016 5.70012 4.56016C4.36012 5.32016 3.32012 6.41016 2.58012 7.83016C1.86012 9.23016 1.50012 10.8602 1.50012 12.7202C1.50012 14.5802 1.86012 16.2102 2.58012 17.6102C3.32012 19.0102 4.36012 20.1002 5.70012 20.8802C7.06012 21.6602 8.65012 22.0502 10.4701 22.0502C12.2701 22.0502 13.8401 21.6602 15.1801 20.8802C16.5401 20.1002 17.5801 19.0102 18.3001 17.6102C19.0401 16.2102 19.4101 14.5802 19.4101 12.7202C19.4101 10.8602 19.0401 9.23016 18.3001 7.83016C17.5801 6.41016 16.5501 5.32016 15.2101 4.56016C13.8701 3.80016 12.2901 3.42015 10.4701 3.42015ZM10.3801 5.82016C9.16012 5.82016 8.05012 6.11016 7.05012 6.69016C6.05012 7.25016 5.26012 8.05016 4.68012 9.09016C4.12012 10.1302 3.84012 11.3302 3.84012 12.6902C3.84012 14.0502 4.13012 15.2602 4.71012 16.3202C5.29012 17.3602 6.07012 18.1702 7.05012 18.7502C8.05012 19.3102 9.16012 19.5902 10.3801 19.5902C11.9001 19.5902 13.2101 19.1902 14.3101 18.3902C15.4101 17.5702 16.1501 16.5002 16.5301 15.1802H13.4101C13.1501 15.8202 12.7801 16.3102 12.3001 16.6502C11.8201 16.9902 11.1801 17.1602 10.3801 17.1602C9.32012 17.1602 8.47012 16.7802 7.83012 16.0202C7.19012 15.2402 6.87012 14.1302 6.87012 12.6902C6.87012 11.2502 7.19012 10.1502 7.83012 9.39016C8.47012 8.63016 9.32012 8.25016 10.3801 8.25016C11.1401 8.25016 11.7801 8.42016 12.3001 8.76016C12.8401 9.10016 13.2101 9.59016 13.4101 10.2302H16.5301C16.1501 8.83016 15.4201 7.75015 14.3401 6.99016C13.2601 6.21016 11.9401 5.82016 10.3801 5.82016ZM33.775 18.5102C35.695 16.8502 37.205 15.4902 38.305 14.4302C39.425 13.3502 40.355 12.2302 41.095 11.0702C41.835 9.91016 42.205 8.75016 42.205 7.59015C42.205 6.39015 41.915 5.45015 41.335 4.77016C40.775 4.09016 39.885 3.75016 38.665 3.75016C37.485 3.75016 36.565 4.13016 35.905 4.89016C35.265 5.63016 34.925 6.63016 34.885 7.89016H31.585C31.645 5.61016 32.325 3.87016 33.625 2.67016C34.945 1.45016 36.615 0.840156 38.635 0.840156C40.815 0.840156 42.515 1.44016 43.735 2.64016C44.975 3.84016 45.595 5.44016 45.595 7.44015C45.595 8.88016 45.225 10.2702 44.485 11.6102C43.765 12.9302 42.895 14.1202 41.875 15.1802C40.875 16.2202 39.595 17.4302 38.035 18.8102L36.685 20.0102H46.195V22.8602H31.615V20.3702L33.775 18.5102ZM49.1994 11.9402C49.1994 8.48016 49.7794 5.78015 50.9394 3.84015C52.1194 1.88015 54.1394 0.900155 56.9994 0.900155C59.8594 0.900155 61.8694 1.88015 63.0294 3.84015C64.2094 5.78015 64.7994 8.48016 64.7994 11.9402C64.7994 15.4402 64.2094 18.1802 63.0294 20.1602C61.8694 22.1202 59.8594 23.1002 56.9994 23.1002C54.1394 23.1002 52.1194 22.1202 50.9394 20.1602C49.7794 18.1802 49.1994 15.4402 49.1994 11.9402ZM61.4394 11.9402C61.4394 10.3202 61.3294 8.95016 61.1094 7.83016C60.9094 6.71016 60.4894 5.80016 59.8494 5.10015C59.2094 4.38016 58.2594 4.02016 56.9994 4.02016C55.7394 4.02016 54.7894 4.38016 54.1494 5.10015C53.5094 5.80016 53.0794 6.71016 52.8594 7.83016C52.6594 8.95016 52.5594 10.3202 52.5594 11.9402C52.5594 13.6202 52.6594 15.0302 52.8594 16.1702C53.0594 17.3102 53.4794 18.2302 54.1194 18.9302C54.7794 19.6302 55.7394 19.9802 56.9994 19.9802C58.2594 19.9802 59.2094 19.6302 59.8494 18.9302C60.5094 18.2302 60.9394 17.3102 61.1394 16.1702C61.3394 15.0302 61.4394 13.6202 61.4394 11.9402ZM70.3082 18.5102C72.2282 16.8502 73.7382 15.4902 74.8382 14.4302C75.9582 13.3502 76.8882 12.2302 77.6282 11.0702C78.3682 9.91016 78.7382 8.75016 78.7382 7.59015C78.7382 6.39015 78.4482 5.45015 77.8682 4.77016C77.3082 4.09016 76.4182 3.75016 75.1982 3.75016C74.0182 3.75016 73.0982 4.13016 72.4382 4.89016C71.7982 5.63016 71.4582 6.63016 71.4182 7.89016H68.1182C68.1782 5.61016 68.8582 3.87016 70.1582 2.67016C71.4782 1.45016 73.1482 0.840156 75.1682 0.840156C77.3482 0.840156 79.0482 1.44016 80.2682 2.64016C81.5082 3.84016 82.1282 5.44016 82.1282 7.44015C82.1282 8.88016 81.7582 10.2702 81.0182 11.6102C80.2982 12.9302 79.4282 14.1202 78.4082 15.1802C77.4082 16.2202 76.1282 17.4302 74.5682 18.8102L73.2182 20.0102H82.7282V22.8602H68.1482V20.3702L70.3082 18.5102ZM97.4926 6.36016C97.2726 5.44016 96.8726 4.75016 96.2926 4.29016C95.7126 3.83016 94.9026 3.60016 93.8626 3.60016C92.2826 3.60016 91.1026 4.21016 90.3226 5.43016C89.5426 6.63016 89.1326 8.63016 89.0926 11.4302C89.6126 10.5502 90.3726 9.87016 91.3726 9.39016C92.3726 8.91016 93.4526 8.67016 94.6126 8.67016C95.9326 8.67016 97.0926 8.96016 98.0926 9.54016C99.1126 10.1002 99.9026 10.9202 100.463 12.0002C101.043 13.0802 101.333 14.3702 101.333 15.8702C101.333 17.2702 101.053 18.5202 100.493 19.6202C99.9526 20.7202 99.1426 21.5902 98.0626 22.2302C96.9826 22.8502 95.6826 23.1602 94.1626 23.1602C92.1026 23.1602 90.4826 22.7102 89.3026 21.8102C88.1426 20.8902 87.3226 19.6002 86.8426 17.9402C86.3826 16.2802 86.1526 14.2102 86.1526 11.7302C86.1526 4.41016 88.7326 0.750155 93.8926 0.750155C95.8926 0.750155 97.4626 1.29016 98.6026 2.37016C99.7626 3.45015 100.443 4.78016 100.643 6.36016H97.4926ZM93.8626 11.5502C92.6426 11.5502 91.6026 11.9202 90.7426 12.6602C89.9026 13.3802 89.4826 14.4302 89.4826 15.8102C89.4826 17.1902 89.8726 18.2902 90.6526 19.1102C91.4526 19.9102 92.5626 20.3102 93.9826 20.3102C95.2426 20.3102 96.2326 19.9202 96.9526 19.1402C97.6926 18.3602 98.0626 17.3202 98.0626 16.0202C98.0626 14.6602 97.7026 13.5802 96.9826 12.7802C96.2826 11.9602 95.2426 11.5502 93.8626 11.5502ZM114.724 15.3002C114.104 15.3002 113.584 15.0902 113.164 14.6702C112.744 14.2502 112.534 13.7302 112.534 13.1102C112.534 12.4902 112.744 11.9702 113.164 11.5502C113.584 11.1302 114.104 10.9202 114.724 10.9202C115.324 10.9202 115.834 11.1302 116.254 11.5502C116.674 11.9702 116.884 12.4902 116.884 13.1102C116.884 13.7302 116.674 14.2502 116.254 14.6702C115.834 15.0902 115.324 15.3002 114.724 15.3002ZM139.501 12.4502C140.621 12.6502 141.571 13.2402 142.351 14.2202C143.131 15.2002 143.521 16.3102 143.521 17.5502C143.521 18.6102 143.241 19.5702 142.681 20.4302C142.141 21.2702 141.351 21.9402 140.311 22.4402C139.271 22.9202 138.061 23.1602 136.681 23.1602H128.341V2.31015H136.291C137.711 2.31015 138.931 2.55016 139.951 3.03016C140.971 3.51016 141.741 4.16016 142.261 4.98016C142.781 5.78016 143.041 6.68016 143.041 7.68016C143.041 8.88016 142.721 9.88016 142.081 10.6802C141.441 11.4802 140.581 12.0702 139.501 12.4502ZM131.761 11.0702H135.991C137.111 11.0702 137.981 10.8202 138.601 10.3202C139.241 9.80016 139.561 9.06016 139.561 8.10016C139.561 7.16016 139.241 6.43016 138.601 5.91015C137.981 5.37015 137.111 5.10015 135.991 5.10015H131.761V11.0702ZM136.381 20.3702C137.541 20.3702 138.451 20.0902 139.111 19.5302C139.771 18.9702 140.101 18.1902 140.101 17.1902C140.101 16.1702 139.751 15.3602 139.051 14.7602C138.351 14.1602 137.421 13.8602 136.261 13.8602H131.761V20.3702H136.381ZM162.207 6.63016V23.1602H158.787V21.2102C158.247 21.8902 157.537 22.4302 156.657 22.8302C155.797 23.2102 154.877 23.4002 153.897 23.4002C152.597 23.4002 151.427 23.1302 150.387 22.5902C149.367 22.0502 148.557 21.2502 147.957 20.1902C147.377 19.1302 147.087 17.8502 147.087 16.3502V6.63016H150.477V15.8402C150.477 17.3202 150.847 18.4602 151.587 19.2602C152.327 20.0402 153.337 20.4302 154.617 20.4302C155.897 20.4302 156.907 20.0402 157.647 19.2602C158.407 18.4602 158.787 17.3202 158.787 15.8402V6.63016H162.207ZM168.46 4.44016C167.84 4.44016 167.32 4.23016 166.9 3.81016C166.48 3.39016 166.27 2.87016 166.27 2.25016C166.27 1.63016 166.48 1.11016 166.9 0.690156C167.32 0.270155 167.84 0.060155 168.46 0.060155C169.06 0.060155 169.57 0.270155 169.99 0.690156C170.41 1.11016 170.62 1.63016 170.62 2.25016C170.62 2.87016 170.41 3.39016 169.99 3.81016C169.57 4.23016 169.06 4.44016 168.46 4.44016ZM170.14 6.63016V23.1602H166.72V6.63016H170.14ZM178.05 0.960156V23.1602H174.63V0.960156H178.05ZM186.53 9.42016V18.5702C186.53 19.1902 186.67 19.6402 186.95 19.9202C187.25 20.1802 187.75 20.3102 188.45 20.3102H190.55V23.1602H187.85C186.31 23.1602 185.13 22.8002 184.31 22.0802C183.49 21.3602 183.08 20.1902 183.08 18.5702V9.42016H181.13V6.63016H183.08V2.52016H186.53V6.63016H190.55V9.42016H186.53ZM208.425 9.42016H205.365V23.1602H201.915V9.42016H199.965V6.63016H201.915V5.46016C201.915 3.56015 202.415 2.18015 203.415 1.32015C204.435 0.440156 206.025 0.000155807 208.185 0.000155807V2.85015C207.145 2.85015 206.415 3.05016 205.995 3.45016C205.575 3.83016 205.365 4.50016 205.365 5.46016V6.63016H208.425V9.42016ZM218.626 23.4302C217.066 23.4302 215.656 23.0802 214.396 22.3802C213.136 21.6602 212.146 20.6602 211.426 19.3802C210.706 18.0802 210.346 16.5802 210.346 14.8802C210.346 13.2002 210.716 11.7102 211.456 10.4102C212.196 9.11016 213.206 8.11016 214.486 7.41016C215.766 6.71016 217.196 6.36016 218.776 6.36016C220.356 6.36016 221.786 6.71016 223.066 7.41016C224.346 8.11016 225.356 9.11016 226.096 10.4102C226.836 11.7102 227.206 13.2002 227.206 14.8802C227.206 16.5602 226.826 18.0502 226.066 19.3502C225.306 20.6502 224.266 21.6602 222.946 22.3802C221.646 23.0802 220.206 23.4302 218.626 23.4302ZM218.626 20.4602C219.506 20.4602 220.326 20.2502 221.086 19.8302C221.866 19.4102 222.496 18.7802 222.976 17.9402C223.456 17.1002 223.696 16.0802 223.696 14.8802C223.696 13.6802 223.466 12.6702 223.006 11.8502C222.546 11.0102 221.936 10.3802 221.176 9.96016C220.416 9.54016 219.596 9.33016 218.716 9.33016C217.836 9.33016 217.016 9.54016 216.256 9.96016C215.516 10.3802 214.926 11.0102 214.486 11.8502C214.046 12.6702 213.826 13.6802 213.826 14.8802C213.826 16.6602 214.276 18.0402 215.176 19.0202C216.096 19.9802 217.246 20.4602 218.626 20.4602ZM234.007 9.03016C234.507 8.19016 235.167 7.54016 235.987 7.08016C236.827 6.60016 237.817 6.36016 238.957 6.36016V9.90016H238.087C236.747 9.90016 235.727 10.2402 235.027 10.9202C234.347 11.6002 234.007 12.7802 234.007 14.4602V23.1602H230.587V6.63016H234.007V9.03016ZM253.314 9.03016C253.814 8.19016 254.474 7.54016 255.294 7.08016C256.134 6.60016 257.124 6.36016 258.264 6.36016V9.90016H257.394C256.054 9.90016 255.034 10.2402 254.334 10.9202C253.654 11.6002 253.314 12.7802 253.314 14.4602V23.1602H249.894V6.63016H253.314V9.03016ZM276.557 14.4902C276.557 15.1102 276.517 15.6702 276.437 16.1702H263.807C263.907 17.4902 264.397 18.5502 265.277 19.3502C266.157 20.1502 267.237 20.5502 268.517 20.5502C270.357 20.5502 271.657 19.7802 272.417 18.2402H276.107C275.607 19.7602 274.697 21.0102 273.377 21.9902C272.077 22.9502 270.457 23.4302 268.517 23.4302C266.937 23.4302 265.517 23.0802 264.257 22.3802C263.017 21.6602 262.037 20.6602 261.317 19.3802C260.617 18.0802 260.267 16.5802 260.267 14.8802C260.267 13.1802 260.607 11.6902 261.287 10.4102C261.987 9.11016 262.957 8.11016 264.197 7.41016C265.457 6.71016 266.897 6.36016 268.517 6.36016C270.077 6.36016 271.467 6.70016 272.687 7.38016C273.907 8.06016 274.857 9.02016 275.537 10.2602C276.217 11.4802 276.557 12.8902 276.557 14.4902ZM272.987 13.4102C272.967 12.1502 272.517 11.1402 271.637 10.3802C270.757 9.62016 269.667 9.24016 268.367 9.24016C267.187 9.24016 266.177 9.62016 265.337 10.3802C264.497 11.1202 263.997 12.1302 263.837 13.4102H272.987ZM278.783 14.8202C278.783 13.1602 279.123 11.6902 279.803 10.4102C280.503 9.13016 281.443 8.14016 282.623 7.44015C283.823 6.72016 285.143 6.36016 286.583 6.36016C287.883 6.36016 289.013 6.62016 289.973 7.14016C290.953 7.64016 291.733 8.27016 292.313 9.03016V6.63016H295.763V23.1602H292.313V20.7002C291.733 21.4802 290.943 22.1302 289.943 22.6502C288.943 23.1702 287.803 23.4302 286.523 23.4302C285.103 23.4302 283.803 23.0702 282.623 22.3502C281.443 21.6102 280.503 20.5902 279.803 19.2902C279.123 17.9702 278.783 16.4802 278.783 14.8202ZM292.313 14.8802C292.313 13.7402 292.073 12.7502 291.593 11.9102C291.133 11.0702 290.523 10.4302 289.763 9.99016C289.003 9.55016 288.183 9.33016 287.303 9.33016C286.423 9.33016 285.603 9.55016 284.843 9.99016C284.083 10.4102 283.463 11.0402 282.983 11.8802C282.523 12.7002 282.293 13.6802 282.293 14.8202C282.293 15.9602 282.523 16.9602 282.983 17.8202C283.463 18.6802 284.083 19.3402 284.843 19.8002C285.623 20.2402 286.443 20.4602 287.303 20.4602C288.183 20.4602 289.003 20.2402 289.763 19.8002C290.523 19.3602 291.133 18.7202 291.593 17.8802C292.073 17.0202 292.313 16.0202 292.313 14.8802ZM303.675 0.960156V23.1602H300.255V0.960156H303.675ZM319.378 9.06016C319.958 8.30016 320.748 7.66016 321.748 7.14016C322.748 6.62016 323.878 6.36016 325.138 6.36016C326.578 6.36016 327.888 6.72016 329.068 7.44015C330.268 8.14016 331.208 9.13016 331.888 10.4102C332.568 11.6902 332.908 13.1602 332.908 14.8202C332.908 16.4802 332.568 17.9702 331.888 19.2902C331.208 20.5902 330.268 21.6102 329.068 22.3502C327.888 23.0702 326.578 23.4302 325.138 23.4302C323.878 23.4302 322.758 23.1802 321.778 22.6802C320.798 22.1602 319.998 21.5202 319.378 20.7602V31.0202H315.958V6.63016H319.378V9.06016ZM329.428 14.8202C329.428 13.6802 329.188 12.7002 328.708 11.8802C328.248 11.0402 327.628 10.4102 326.848 9.99016C326.088 9.55016 325.268 9.33016 324.388 9.33016C323.528 9.33016 322.708 9.55016 321.928 9.99016C321.168 10.4302 320.548 11.0702 320.068 11.9102C319.608 12.7502 319.378 13.7402 319.378 14.8802C319.378 16.0202 319.608 17.0202 320.068 17.8802C320.548 18.7202 321.168 19.3602 321.928 19.8002C322.708 20.2402 323.528 20.4602 324.388 20.4602C325.268 20.4602 326.088 20.2402 326.848 19.8002C327.628 19.3402 328.248 18.6802 328.708 17.8202C329.188 16.9602 329.428 15.9602 329.428 14.8202ZM351.44 14.4902C351.44 15.1102 351.4 15.6702 351.32 16.1702H338.69C338.79 17.4902 339.28 18.5502 340.16 19.3502C341.04 20.1502 342.12 20.5502 343.4 20.5502C345.24 20.5502 346.54 19.7802 347.3 18.2402H350.99C350.49 19.7602 349.58 21.0102 348.26 21.9902C346.96 22.9502 345.34 23.4302 343.4 23.4302C341.82 23.4302 340.4 23.0802 339.14 22.3802C337.9 21.6602 336.92 20.6602 336.2 19.3802C335.5 18.0802 335.15 16.5802 335.15 14.8802C335.15 13.1802 335.49 11.6902 336.17 10.4102C336.87 9.11016 337.84 8.11016 339.08 7.41016C340.34 6.71016 341.78 6.36016 343.4 6.36016C344.96 6.36016 346.35 6.70016 347.57 7.38016C348.79 8.06016 349.74 9.02016 350.42 10.2602C351.1 11.4802 351.44 12.8902 351.44 14.4902ZM347.87 13.4102C347.85 12.1502 347.4 11.1402 346.52 10.3802C345.64 9.62016 344.55 9.24016 343.25 9.24016C342.07 9.24016 341.06 9.62016 340.22 10.3802C339.38 11.1202 338.88 12.1302 338.72 13.4102H347.87ZM361.976 23.4302C360.416 23.4302 359.006 23.0802 357.746 22.3802C356.486 21.6602 355.496 20.6602 354.776 19.3802C354.056 18.0802 353.696 16.5802 353.696 14.8802C353.696 13.2002 354.066 11.7102 354.806 10.4102C355.546 9.11016 356.556 8.11016 357.836 7.41016C359.116 6.71016 360.546 6.36016 362.126 6.36016C363.706 6.36016 365.136 6.71016 366.416 7.41016C367.696 8.11016 368.706 9.11016 369.446 10.4102C370.186 11.7102 370.556 13.2002 370.556 14.8802C370.556 16.5602 370.176 18.0502 369.416 19.3502C368.656 20.6502 367.616 21.6602 366.296 22.3802C364.996 23.0802 363.556 23.4302 361.976 23.4302ZM361.976 20.4602C362.856 20.4602 363.676 20.2502 364.436 19.8302C365.216 19.4102 365.846 18.7802 366.326 17.9402C366.806 17.1002 367.046 16.0802 367.046 14.8802C367.046 13.6802 366.816 12.6702 366.356 11.8502C365.896 11.0102 365.286 10.3802 364.526 9.96016C363.766 9.54016 362.946 9.33016 362.066 9.33016C361.186 9.33016 360.366 9.54016 359.606 9.96016C358.866 10.3802 358.276 11.0102 357.836 11.8502C357.396 12.6702 357.176 13.6802 357.176 14.8802C357.176 16.6602 357.626 18.0402 358.526 19.0202C359.446 19.9802 360.596 20.4602 361.976 20.4602ZM377.357 9.06016C377.937 8.30016 378.727 7.66016 379.727 7.14016C380.727 6.62016 381.857 6.36016 383.117 6.36016C384.557 6.36016 385.867 6.72016 387.047 7.44015C388.247 8.14016 389.187 9.13016 389.867 10.4102C390.547 11.6902 390.887 13.1602 390.887 14.8202C390.887 16.4802 390.547 17.9702 389.867 19.2902C389.187 20.5902 388.247 21.6102 387.047 22.3502C385.867 23.0702 384.557 23.4302 383.117 23.4302C381.857 23.4302 380.737 23.1802 379.757 22.6802C378.777 22.1602 377.977 21.5202 377.357 20.7602V31.0202H373.937V6.63016H377.357V9.06016ZM387.407 14.8202C387.407 13.6802 387.167 12.7002 386.687 11.8802C386.227 11.0402 385.607 10.4102 384.827 9.99016C384.067 9.55016 383.247 9.33016 382.367 9.33016C381.507 9.33016 380.687 9.55016 379.907 9.99016C379.147 10.4302 378.527 11.0702 378.047 11.9102C377.587 12.7502 377.357 13.7402 377.357 14.8802C377.357 16.0202 377.587 17.0202 378.047 17.8802C378.527 18.7202 379.147 19.3602 379.907 19.8002C380.687 20.2402 381.507 20.4602 382.367 20.4602C383.247 20.4602 384.067 20.2402 384.827 19.8002C385.607 19.3402 386.227 18.6802 386.687 17.8202C387.167 16.9602 387.407 15.9602 387.407 14.8202ZM397.689 0.960156V23.1602H394.269V0.960156H397.689ZM417.329 14.4902C417.329 15.1102 417.289 15.6702 417.209 16.1702H404.579C404.679 17.4902 405.169 18.5502 406.049 19.3502C406.929 20.1502 408.009 20.5502 409.289 20.5502C411.129 20.5502 412.429 19.7802 413.189 18.2402H416.879C416.379 19.7602 415.469 21.0102 414.149 21.9902C412.849 22.9502 411.229 23.4302 409.289 23.4302C407.709 23.4302 406.289 23.0802 405.029 22.3802C403.789 21.6602 402.809 20.6602 402.089 19.3802C401.389 18.0802 401.039 16.5802 401.039 14.8802C401.039 13.1802 401.379 11.6902 402.059 10.4102C402.759 9.11016 403.729 8.11016 404.969 7.41016C406.229 6.71016 407.669 6.36016 409.289 6.36016C410.849 6.36016 412.239 6.70016 413.459 7.38016C414.679 8.06016 415.629 9.02016 416.309 10.2602C416.989 11.4802 417.329 12.8902 417.329 14.4902ZM413.759 13.4102C413.739 12.1502 413.289 11.1402 412.409 10.3802C411.529 9.62016 410.439 9.24016 409.139 9.24016C407.959 9.24016 406.949 9.62016 406.109 10.3802C405.269 11.1202 404.769 12.1302 404.609 13.4102H413.759Z" fill="white"/>
</svg>
