<svg width="1197" height="940" viewBox="0 0 1197 940" fill="none" xmlns="http://www.w3.org/2000/svg">
<g>
<path d="M581.917 928C903.301 928 1163.83 871.828 1163.83 802.537C1163.83 733.245 903.301 677.073 581.917 677.073C260.533 677.073 0 733.245 0 802.537C0 871.828 260.533 928 581.917 928Z" fill="#E6E6E6"/>
<path d="M315.979 733.365L323.051 821.97L817.726 818.846L808.29 722.117L641.05 701.533L347.777 720.262L315.979 733.365Z" fill="#090814"/>
<path d="M641.474 795.274L476.796 811.582C476.796 811.582 589.622 841.969 655.492 827.205L641.474 795.274Z" fill="#ED9DA0"/>
<path opacity="0.035" d="M641.474 795.281L476.796 811.588C476.796 811.588 589.622 841.976 655.492 827.212L641.474 795.281Z" fill="black"/>
<path d="M155.84 649.99C176.874 603.317 262.35 682.611 262.35 682.611L382.902 593.678C415.119 576.627 410.923 439.527 410.923 439.527C410.923 439.527 409.53 355.748 420.732 331.32C431.935 306.891 524.436 288.356 524.436 288.356L529.431 287.828C545.118 266.536 544.279 244.611 540.748 229.842C524.542 222.912 511.044 210.362 502.47 194.25C493.897 178.138 490.757 159.422 493.566 141.174C496.375 122.926 504.966 106.23 517.929 93.8266C530.893 81.423 547.458 74.0484 564.906 72.9132C582.354 71.7781 599.649 76.9498 613.952 87.5796C628.255 98.2094 638.717 113.666 643.619 131.412C648.522 149.158 647.575 168.14 640.933 185.242C634.291 202.343 622.35 216.549 607.068 225.528C608.019 233.716 611.401 259.804 618.22 282.662L707.986 312.087C785.084 328.367 758.455 421.763 758.455 421.763C758.455 421.763 762.644 510.678 765.448 531.439C768.253 552.2 775.255 581.839 775.255 581.839L862.21 653.065C862.21 653.065 983.464 592.112 975.735 645.464C968.007 698.817 852.409 686.969 852.409 686.969L743.087 645.466C724.162 635.841 715.063 602.5 715.063 602.5C715.063 602.5 703.835 453.61 708.041 430.651C712.247 407.693 683.17 383.032 683.17 383.032L669.021 425.759C667.648 441.275 666.514 451.802 666.514 451.802L499.441 460.706C499.441 460.706 498.38 455.423 497.093 446.696L476.796 452.889L458.572 605.558C456.463 630.765 436.151 641.136 436.151 641.136L392.703 670.778L256.757 713.742C256.757 713.742 134.816 696.673 155.84 649.99Z" fill="#ED9DA0"/>
<path d="M473.989 713.755C473.989 713.755 319.117 710.044 273.58 698.131C228.043 686.219 188.79 743.4 204.906 776.092C221.022 808.783 265.845 830.93 265.845 830.93C265.845 830.93 496.407 842.784 546.154 809.453C546.154 809.453 565.082 752.388 546.154 741.276H305.804L483.075 737.565L473.989 713.755Z" fill="#090814"/>
<path d="M719.953 696.71C719.953 696.71 771.823 708.565 843.286 678.92C843.286 678.92 977.144 674.486 932.29 764.849C887.436 855.211 639.367 833.045 639.367 833.045C639.367 833.045 624.595 799.689 639.367 790.804C654.14 781.918 782.329 724.834 822.27 727.808L711.475 750.774L719.953 696.71Z" fill="#090814"/>
<path d="M458.433 311.096C457.29 327.885 476.79 403.966 476.79 403.966C476.79 403.966 462.017 450.661 476.79 496.613C491.563 542.566 458.558 713.759 458.558 713.759C458.558 713.759 631.656 772.346 737.392 704.873C737.392 704.873 659.613 531.434 692.538 473.624C725.462 415.815 693.092 393.222 693.092 393.222L697.784 307.755C697.784 307.755 682.227 290.297 669.392 302.817C656.558 315.337 669.392 386.652 669.392 386.652C669.392 386.652 565.534 454.436 493.887 395.094C493.561 394.829 494.601 395.716 493.887 395.094L484.735 297.648C484.735 297.648 459.577 294.308 458.433 311.096Z" fill="#007979"/>
<path d="M545.058 750.064L578.859 744.85C578.859 744.85 617.869 687.785 645.828 731.511C645.828 731.511 657.529 759.672 671.835 764.847C681.588 768.217 691.595 770.7 701.747 772.268L643.875 790.801C643.875 790.801 618.526 807.85 591.862 803.398C576.156 800.664 560.051 802.197 545.058 807.851C545.058 807.851 542.855 789.339 545.058 774.228C547.261 759.117 545.058 750.064 545.058 750.064Z" fill="#ED9DA0"/>
<path d="M542.242 231.811C544.828 215.867 533.449 200.463 534.782 184.329C535.969 170.116 546.52 159.196 555.47 148.557C561.938 140.88 568.116 131.418 569.512 121.647C578.941 114.527 589.969 110.143 601.498 108.93C612.312 107.852 623.725 109.81 632.579 116.472C641.433 123.135 647.172 135.034 645.115 146.372C647.792 143.486 649.811 139.993 651.022 136.159C652.232 132.324 652.601 128.249 652.1 124.241C651.6 120.233 650.243 116.399 648.133 113.028C646.023 109.658 643.215 106.839 639.922 104.787C641.848 97.7516 642.062 90.3156 640.546 83.1691C639.029 76.0225 635.83 69.3969 631.245 63.9071C622.005 53.071 584.525 54.9371 571.032 57.7752L572.078 55.8853L572.05 55.8549C574.031 57.0845 576.714 55.2171 577.363 52.8504C578.012 50.4838 577.251 47.9943 576.534 45.6568C575.285 41.741 574.071 37.8556 572.819 33.9398C570.179 25.6381 567.379 17.0471 561.679 10.733C553.062 1.20177 539.326 -1.23355 526.995 0.533508C511.158 2.81033 495.526 11.9018 488.159 26.9957C480.791 42.0896 483.937 63.1107 497.248 72.5205C478.267 95.6321 471.664 121.4 472.709 152.025C473.733 182.683 505.178 210.875 525.681 232.472C525.849 232.362 526.012 232.243 526.168 232.115C523.812 240.276 519.344 247.577 513.271 253.194C514.613 253.461 515.976 253.594 517.342 253.591C528.928 253.591 540.273 244.106 542.242 231.811Z" fill="#090814"/>
<rect x="107" y="717" width="403" height="91" rx="45.5" fill="#FFE0C5"/>
<path d="M170.404 771.408C168.681 771.408 167.151 771.102 165.814 770.49C164.477 769.878 163.434 769.005 162.686 767.872C161.938 766.739 161.553 765.39 161.53 763.826H165.848C165.848 764.619 166.029 765.333 166.392 765.968C166.777 766.58 167.299 767.067 167.956 767.43C168.636 767.793 169.452 767.974 170.404 767.974C171.22 767.974 171.923 767.849 172.512 767.6C173.124 767.328 173.589 766.954 173.906 766.478C174.246 765.979 174.416 765.401 174.416 764.744C174.416 763.996 174.235 763.384 173.872 762.908C173.532 762.409 173.056 761.99 172.444 761.65C171.832 761.31 171.129 761.015 170.336 760.766C169.543 760.494 168.704 760.211 167.82 759.916C165.939 759.281 164.522 758.477 163.57 757.502C162.618 756.505 162.142 755.179 162.142 753.524C162.142 752.141 162.471 750.951 163.128 749.954C163.785 748.957 164.703 748.186 165.882 747.642C167.083 747.075 168.466 746.792 170.03 746.792C171.617 746.792 172.999 747.075 174.178 747.642C175.379 748.209 176.32 749.002 177 750.022C177.703 751.019 178.065 752.221 178.088 753.626H173.736C173.713 753.037 173.555 752.493 173.26 751.994C172.965 751.473 172.535 751.053 171.968 750.736C171.424 750.396 170.755 750.226 169.962 750.226C169.282 750.203 168.67 750.317 168.126 750.566C167.605 750.793 167.185 751.133 166.868 751.586C166.573 752.017 166.426 752.561 166.426 753.218C166.426 753.853 166.562 754.385 166.834 754.816C167.129 755.224 167.548 755.575 168.092 755.87C168.636 756.142 169.271 756.403 169.996 756.652C170.721 756.901 171.515 757.173 172.376 757.468C173.555 757.853 174.62 758.329 175.572 758.896C176.547 759.44 177.317 760.154 177.884 761.038C178.451 761.922 178.734 763.067 178.734 764.472C178.734 765.696 178.417 766.841 177.782 767.906C177.147 768.949 176.218 769.799 174.994 770.456C173.77 771.091 172.24 771.408 170.404 771.408ZM190.589 771.408C188.889 771.408 187.393 771.045 186.101 770.32C184.809 769.572 183.8 768.529 183.075 767.192C182.35 765.855 181.987 764.313 181.987 762.568C181.987 760.755 182.338 759.168 183.041 757.808C183.766 756.448 184.775 755.383 186.067 754.612C187.382 753.841 188.9 753.456 190.623 753.456C192.3 753.456 193.762 753.83 195.009 754.578C196.256 755.326 197.219 756.335 197.899 757.604C198.579 758.851 198.919 760.256 198.919 761.82C198.919 762.047 198.919 762.296 198.919 762.568C198.919 762.84 198.896 763.123 198.851 763.418H184.911V760.8H194.805C194.76 759.553 194.34 758.579 193.547 757.876C192.754 757.151 191.768 756.788 190.589 756.788C189.75 756.788 188.98 756.981 188.277 757.366C187.574 757.751 187.019 758.329 186.611 759.1C186.203 759.848 185.999 760.8 185.999 761.956V762.942C185.999 764.007 186.192 764.925 186.577 765.696C186.985 766.467 187.529 767.056 188.209 767.464C188.912 767.849 189.694 768.042 190.555 768.042C191.507 768.042 192.289 767.838 192.901 767.43C193.536 767.022 194 766.478 194.295 765.798H198.443C198.126 766.863 197.604 767.827 196.879 768.688C196.154 769.527 195.258 770.195 194.193 770.694C193.128 771.17 191.926 771.408 190.589 771.408ZM210.71 771.408C209.01 771.408 207.514 771.045 206.222 770.32C204.93 769.572 203.922 768.529 203.196 767.192C202.471 765.855 202.108 764.313 202.108 762.568C202.108 760.755 202.46 759.168 203.162 757.808C203.888 756.448 204.896 755.383 206.188 754.612C207.503 753.841 209.022 753.456 210.744 753.456C212.422 753.456 213.884 753.83 215.13 754.578C216.377 755.326 217.34 756.335 218.02 757.604C218.7 758.851 219.04 760.256 219.04 761.82C219.04 762.047 219.04 762.296 219.04 762.568C219.04 762.84 219.018 763.123 218.972 763.418H205.032V760.8H214.926C214.881 759.553 214.462 758.579 213.668 757.876C212.875 757.151 211.889 756.788 210.71 756.788C209.872 756.788 209.101 756.981 208.398 757.366C207.696 757.751 207.14 758.329 206.732 759.1C206.324 759.848 206.12 760.8 206.12 761.956V762.942C206.12 764.007 206.313 764.925 206.698 765.696C207.106 766.467 207.65 767.056 208.33 767.464C209.033 767.849 209.815 768.042 210.676 768.042C211.628 768.042 212.41 767.838 213.022 767.43C213.657 767.022 214.122 766.478 214.416 765.798H218.564C218.247 766.863 217.726 767.827 217 768.688C216.275 769.527 215.38 770.195 214.314 770.694C213.249 771.17 212.048 771.408 210.71 771.408ZM231.108 771V746.52H235.188V756.516C235.755 755.587 236.525 754.85 237.5 754.306C238.475 753.739 239.574 753.456 240.798 753.456C242.203 753.456 243.393 753.751 244.368 754.34C245.343 754.907 246.079 755.757 246.578 756.89C247.099 758.001 247.36 759.395 247.36 761.072V771H243.314V761.446C243.314 759.973 242.997 758.851 242.362 758.08C241.75 757.309 240.809 756.924 239.54 756.924C238.724 756.924 237.987 757.128 237.33 757.536C236.673 757.921 236.151 758.488 235.766 759.236C235.381 759.961 235.188 760.857 235.188 761.922V771H231.108ZM259.684 771.408C258.052 771.408 256.579 771.034 255.264 770.286C253.972 769.515 252.952 768.461 252.204 767.124C251.479 765.764 251.116 764.211 251.116 762.466C251.116 760.675 251.49 759.111 252.238 757.774C252.986 756.414 254.006 755.36 255.298 754.612C256.613 753.841 258.086 753.456 259.718 753.456C261.35 753.456 262.812 753.841 264.104 754.612C265.419 755.36 266.439 756.403 267.164 757.74C267.912 759.077 268.286 760.641 268.286 762.432C268.286 764.223 267.912 765.787 267.164 767.124C266.416 768.461 265.385 769.515 264.07 770.286C262.778 771.034 261.316 771.408 259.684 771.408ZM259.684 767.906C260.5 767.906 261.237 767.702 261.894 767.294C262.574 766.886 263.118 766.274 263.526 765.458C263.934 764.642 264.138 763.633 264.138 762.432C264.138 761.231 263.934 760.233 263.526 759.44C263.141 758.624 262.608 758.012 261.928 757.604C261.271 757.196 260.534 756.992 259.718 756.992C258.925 756.992 258.188 757.196 257.508 757.604C256.828 758.012 256.284 758.624 255.876 759.44C255.468 760.233 255.264 761.231 255.264 762.432C255.264 763.633 255.468 764.642 255.876 765.458C256.284 766.274 256.817 766.886 257.474 767.294C258.154 767.702 258.891 767.906 259.684 767.906ZM275.082 771L270.05 753.864H274.096L277.598 767.94L276.85 767.906L280.76 753.864H285.316L289.26 767.906H288.512L292.014 753.864H296.06L291.028 771H286.812L282.63 756.482H283.48L279.298 771H275.082ZM307.446 771V753.864H311.526V771H307.446ZM309.486 751.144C308.738 751.144 308.115 750.917 307.616 750.464C307.14 749.988 306.902 749.41 306.902 748.73C306.902 748.027 307.14 747.461 307.616 747.03C308.115 746.577 308.738 746.35 309.486 746.35C310.234 746.35 310.846 746.577 311.322 747.03C311.821 747.461 312.07 748.027 312.07 748.73C312.07 749.41 311.821 749.988 311.322 750.464C310.846 750.917 310.234 751.144 309.486 751.144ZM323.687 771C322.531 771 321.522 770.819 320.661 770.456C319.822 770.093 319.165 769.493 318.689 768.654C318.213 767.815 317.975 766.682 317.975 765.254V757.298H315.051V753.864H317.975L318.451 749.342H322.055V753.864H326.713V757.298H322.055V765.254C322.055 766.115 322.236 766.716 322.599 767.056C322.984 767.373 323.619 767.532 324.503 767.532H326.611V771H323.687ZM342.252 771L337.22 753.864H341.266L344.768 767.94L344.02 767.906L347.93 753.864H352.486L356.43 767.906H355.682L359.184 753.864H363.23L358.198 771H353.982L349.8 756.482H350.65L346.468 771H342.252ZM373.538 771.408C371.906 771.408 370.432 771.034 369.118 770.286C367.826 769.515 366.806 768.461 366.058 767.124C365.332 765.764 364.97 764.211 364.97 762.466C364.97 760.675 365.344 759.111 366.092 757.774C366.84 756.414 367.86 755.36 369.152 754.612C370.466 753.841 371.94 753.456 373.572 753.456C375.204 753.456 376.666 753.841 377.958 754.612C379.272 755.36 380.292 756.403 381.018 757.74C381.766 759.077 382.14 760.641 382.14 762.432C382.14 764.223 381.766 765.787 381.018 767.124C380.27 768.461 379.238 769.515 377.924 770.286C376.632 771.034 375.17 771.408 373.538 771.408ZM373.538 767.906C374.354 767.906 375.09 767.702 375.748 767.294C376.428 766.886 376.972 766.274 377.38 765.458C377.788 764.642 377.992 763.633 377.992 762.432C377.992 761.231 377.788 760.233 377.38 759.44C376.994 758.624 376.462 758.012 375.782 757.604C375.124 757.196 374.388 756.992 373.572 756.992C372.778 756.992 372.042 757.196 371.362 757.604C370.682 758.012 370.138 758.624 369.73 759.44C369.322 760.233 369.118 761.231 369.118 762.432C369.118 763.633 369.322 764.642 369.73 765.458C370.138 766.274 370.67 766.886 371.328 767.294C372.008 767.702 372.744 767.906 373.538 767.906ZM386.133 771V753.864H389.771L390.145 757.06C390.553 756.312 391.063 755.677 391.675 755.156C392.287 754.612 393.001 754.193 393.817 753.898C394.656 753.603 395.574 753.456 396.571 753.456V757.774H395.143C394.463 757.774 393.817 757.865 393.205 758.046C392.593 758.205 392.061 758.477 391.607 758.862C391.177 759.225 390.837 759.735 390.587 760.392C390.338 761.027 390.213 761.831 390.213 762.806V771H386.133ZM410.697 771L403.115 761.616L409.915 753.864H414.777L406.311 763.282V760.12L415.797 771H410.697ZM399.647 771V746.52H403.727V771H399.647ZM424.51 771.408C422.992 771.408 421.666 771.17 420.532 770.694C419.422 770.195 418.538 769.515 417.88 768.654C417.246 767.77 416.872 766.761 416.758 765.628H420.838C420.952 766.104 421.156 766.546 421.45 766.954C421.745 767.339 422.142 767.645 422.64 767.872C423.162 768.099 423.774 768.212 424.476 768.212C425.156 768.212 425.712 768.121 426.142 767.94C426.573 767.736 426.89 767.475 427.094 767.158C427.298 766.841 427.4 766.501 427.4 766.138C427.4 765.594 427.253 765.175 426.958 764.88C426.664 764.585 426.233 764.359 425.666 764.2C425.122 764.019 424.465 763.849 423.694 763.69C422.878 763.531 422.085 763.339 421.314 763.112C420.566 762.863 419.886 762.557 419.274 762.194C418.685 761.831 418.209 761.367 417.846 760.8C417.506 760.233 417.336 759.542 417.336 758.726C417.336 757.729 417.597 756.833 418.118 756.04C418.662 755.247 419.433 754.623 420.43 754.17C421.45 753.694 422.663 753.456 424.068 753.456C426.063 753.456 427.65 753.921 428.828 754.85C430.03 755.757 430.732 757.037 430.936 758.692H427.06C426.947 758.057 426.63 757.57 426.108 757.23C425.587 756.867 424.896 756.686 424.034 756.686C423.15 756.686 422.47 756.856 421.994 757.196C421.541 757.513 421.314 757.944 421.314 758.488C421.314 758.828 421.45 759.145 421.722 759.44C422.017 759.712 422.436 759.95 422.98 760.154C423.524 760.335 424.193 760.517 424.986 760.698C426.256 760.947 427.378 761.242 428.352 761.582C429.327 761.922 430.098 762.421 430.664 763.078C431.231 763.735 431.514 764.665 431.514 765.866C431.537 766.954 431.254 767.917 430.664 768.756C430.098 769.595 429.293 770.252 428.25 770.728C427.208 771.181 425.961 771.408 424.51 771.408ZM442.856 758.896L445.44 756.346L454.518 765.288V747.2H458.394V765.254L467.472 756.312L470.056 758.896L457.646 771H455.266L442.856 758.896Z" fill="#007979"/>
</g>
<defs>
<clipPath id="clip0_71_31">
<rect width="1197" height="928" fill="white"/>
</clipPath>
</defs>
</svg>
